<?xml version="1.0" encoding="UTF-8"?><svg id="Capa_2" xmlns="http://www.w3.org/2000/svg" viewBox="0 0 1031.64 247.15"><defs><style>.cls-1{fill:#5463ef;stroke-width:0px;}</style></defs><g id="TEXT"><path class="cls-1" d="M61.23,65.29L0,.94h44.46l35.54,38.67L116.15.94h40.46l-59.54,64.35v40.64h-35.85v-40.64Z"/><path class="cls-1" d="M561.38,51.25v4.18c0,2.97-.19,5.85-.56,8.64-.37,2.78-1.21,5.97-2.52,9.54-1.3,3.57-2.98,6.87-5.04,9.89-2.05,3.02-4.96,6.03-8.74,9.05s-8.14,5.57-13.08,7.66c-4.94,2.09-11.12,3.78-18.53,5.08-7.41,1.3-15.64,1.95-24.69,1.95h-254.59c-9.04,0-17.3-.65-24.75-1.95-7.46-1.3-13.66-3-18.6-5.08-4.94-2.09-9.3-4.64-13.08-7.66-3.78-3.02-6.71-6.04-8.81-9.05s-3.78-6.31-5.04-9.89c-1.26-3.57-2.07-6.76-2.45-9.54-.37-2.79-.56-5.66-.56-8.64v-4.18c0-3.06.19-5.97.56-8.71.37-2.74,1.19-5.9,2.45-9.47,1.26-3.57,2.94-6.85,5.04-9.82,2.1-2.97,5.01-5.94,8.74-8.91,3.73-2.97,8.09-5.48,13.08-7.52,4.99-2.04,11.21-3.69,18.67-4.94,7.46-1.26,15.71-1.88,24.76-1.88h254.59c9.04,0,17.25.63,24.62,1.88,7.37,1.25,13.54,2.9,18.53,4.94,4.99,2.04,9.35,4.55,13.08,7.52,3.73,2.97,6.64,5.94,8.74,8.91,2.1,2.97,3.8,6.22,5.1,9.75,1.3,3.53,2.14,6.68,2.52,9.47.37,2.79.56,5.71.56,8.77ZM527.26,52.23c0-2.6-.33-5.06-.98-7.38-.65-2.32-1.91-4.73-3.78-7.24-1.86-2.51-4.29-4.64-7.27-6.41-2.98-1.76-7.04-3.23-12.17-4.39-4.64-1.05-9.96-1.62-15.98-1.72-.63-.01-249.85-.02-250.5-.02-28.07,0-42.1,9.05-42.1,27.16v1.67c0,3.34.58,6.5,1.75,9.47,1.17,2.97,3.15,5.94,5.94,8.91,2.8,2.97,7.13,5.34,13.01,7.1,5.88,1.76,13.01,2.65,21.4,2.65.65,0,249.86,0,250.49-.02,7.47-.12,13.9-.98,19.27-2.56,5.83-1.72,10.19-4.04,13.08-6.96,2.89-2.93,4.92-5.87,6.08-8.84,1.17-2.97,1.75-6.13,1.75-9.47v-1.95Z"/><path class="cls-1" d="M723.7.21v51.17c0,4.44-.54,8.93-1.63,13.47-1.09,4.54-3.23,9.43-6.44,14.67-3.21,5.24-7.3,9.85-12.26,13.82-4.97,3.97-11.82,7.28-20.56,9.92-8.74,2.65-18.75,3.97-30.03,3.97h-5.59c-8.59,0-16.43-.69-23.51-2.06-7.09-1.37-13.06-3.19-17.93-5.46s-9.16-5.01-12.88-8.22c-3.73-3.21-6.68-6.47-8.85-9.78-2.17-3.31-3.96-6.85-5.35-10.63-1.4-3.78-2.33-7.23-2.79-10.35-.47-3.12-.7-6.24-.7-9.36V.21h36.32v49.19c0,3.78.54,7.3,1.63,10.56,1.09,3.26,2.92,6.47,5.51,9.64,2.59,3.17,6.54,5.67,11.88,7.51,5.33,1.84,11.72,2.77,19.17,2.77s13.63-.92,18.86-2.77c5.23-1.84,9.16-4.35,11.8-7.51,2.64-3.17,4.5-6.38,5.59-9.64,1.09-3.26,1.63-6.78,1.63-10.56V.21h36.17Z"/><path class="cls-1" d="M784.18,26.1h-49.87V.94h136.52v25.16h-50.03v81.19h-36.62V26.1Z"/><path class="cls-1" d="M881.44,1.04h36.23v38.65h77.74V1.04h36.23v106.11h-36.23v-41.79h-77.74v41.79h-36.23V1.04Z"/><path class="cls-1" d="M48.29,245.93L1.22,140.94h39.08l29.54,72.25,20.76-54.73h46.27l22.81,52.61,28.92-70.13h35.23l-46.31,104.99h-36.15l-24.4-62.25h-6.07s-23.08,62.25-23.08,62.25h-39.54Z"/><path class="cls-1" d="M374.87,247.09h-35.64l-9.94-19.23h-75.79l-9.94,19.23h-35.64l56.5-105.18h53.92l56.5,105.18ZM265.72,204.11h51.37l-20.02-38.62h-11.33l-20.02,38.62h0Z"/><path class="cls-1" d="M416.74,245.93l-59.54-104.99h40.62l42.15,77.19,39.54-77.19h37.23l-55.38,104.99h-44.62Z"/><path class="cls-1" d="M648.24,140.55v24.22h-86.54v15.76h84.51v24.36h-84.51v17.48h88.1v24.79h-124.03v-106.61h122.47Z"/></g></svg>